<svg xmlns="http://www.w3.org/2000/svg" xmlns:xlink="http://www.w3.org/1999/xlink" xmlns:lucid="lucid" width="994.31" height="658.33"><g transform="translate(-191.97326191251267 -160)" lucid:page-tab-id="0_0"><path d="M0 0h1360v1760H0z" fill="#fff"/><path d="M533 440c0 22.1-17.9 40-40 40s-40-17.9-40-40 17.9-40 40-40 40 17.9 40 40z" stroke="#000" stroke-width="2" fill="#fff"/><use xlink:href="#a" transform="matrix(1,0,0,1,473,400) translate(9 43.6)"/><path d="M746 440c0 22.1-17.9 40-40 40s-40-17.9-40-40 17.9-40 40-40 40 17.9 40 40z" stroke="#000" stroke-width="2" fill="#fff"/><use xlink:href="#b" transform="matrix(1,0,0,1,686,400) translate(9 43.6)"/><path d="M1140 440c0 22.1-17.9 40-40 40s-40-17.9-40-40 17.9-40 40-40 40 17.9 40 40z" stroke="#000" stroke-width="2" fill="#fff"/><use xlink:href="#c" transform="matrix(1,0,0,1,1080,400) translate(-5.450000000000003 32.8)"/><use xlink:href="#d" transform="matrix(1,0,0,1,1080,400) translate(-2.9750000000000014 54.4)"/><path d="M320 440c0 22.1-17.9 40-40 40s-40-17.9-40-40 17.9-40 40-40 40 17.9 40 40z" stroke="#000" stroke-width="2" fill="#fff"/><use xlink:href="#e" transform="matrix(1,0,0,1,260,400) translate(9 43.6)"/><path d="M357.67 441H321v-2h36.67zm76.1 0h-46.1v-2h46.1zM321 441h-1.06l.06-1-.04-1H321zM448.76 440l-14.26 4.64v-9.28z" fill="#c92d39"/><path d="M452 440l-18.5 6v-12zm-16.5 3.26l10.03-3.26-10.03-3.26z" fill="#c92d39"/><use xlink:href="#f" transform="matrix(1,0,0,1,357.6666666666667,429.2) translate(0 14.4)"/><path d="M567 441h-33v-2h33zm79.76 0H597v-2h49.76zM534 441h-1.06l.06-1-.04-1H534zM661.76 440l-14.26 4.64v-9.28z" fill="#c92d39"/><path d="M665 440l-18.5 6v-12zm-16.5 3.26l10.03-3.26-10.03-3.26z" fill="#c92d39"/><use xlink:href="#f" transform="matrix(1,0,0,1,567,429.2) translate(0 14.4)"/><path d="M925.03 441H747v-2h178.03zm115.73 0h-61.78v-2h61.78zM747 441h-1.06l.06-1-.04-1H747zM1055.76 440l-14.26 4.64v-9.28z" fill="#c92d39"/><path d="M1059 440l-18.5 6v-12zm-16.5 3.26l10.03-3.26-10.03-3.26z" fill="#c92d39"/><use xlink:href="#g" transform="matrix(1,0,0,1,925.032626049942,429.2) translate(0 14.4)"/><path d="M397.83 245.2l2.15.15 2.87.3 4 .6 5.7 1.1 8.44 2 12.18 3.4v2.1l-12.7-3.57-8.36-1.98-5.62-1.08-3.9-.58-2.8-.3-2.05-.13-1.56-.02-3.6.03-6.75.3-6.17.5-5.7.73-5.27.9-4.9 1.03-4.6 1.18-4.3 1.3-4.07 1.42-3.85 1.52-3.67 1.63-3.48 1.75-3.35 1.84-3.2 1.93-3.1 2.06-3 2.16-2.88 2.3-2.82 2.4-2.73 2.57-2.66 2.72-2.6 2.9-2.55 3.06-2.5 3.3-2.43 3.5-2.4 3.8-2.35 4.06-2.3 4.4-2.25 4.8-2.2 5.22-2.13 5.74-2.07 6.34-1.96 7.03-1.84 7.86-1.7 8.85-1.47 10.07-1.2 11.54-.84 13.38-.32 15.74-2-.04.32-15.78.84-13.46 1.22-11.62 1.5-10.14 1.7-8.94 1.85-7.95 2-7.12 2.07-6.42 2.16-5.82 2.23-5.3 2.28-4.87 2.34-4.48 2.4-4.15 2.43-3.85 2.5-3.58 2.53-3.35 2.6-3.14 2.65-2.95 2.72-2.78 2.8-2.62 2.87-2.47 2.95-2.34 3.06-2.22 3.16-2.1 3.27-2 3.42-1.86 3.56-1.78 3.74-1.66 3.93-1.56 4.15-1.44 4.4-1.33 4.67-1.2 5-1.05 5.34-.9 5.77-.73 6.25-.52 6.82-.3 3.66-.02zm82.37 24.16l33.25 14 34.12 16.04 30.25 15.8 24.62 14.2 19.26 12.2 14.9 10.34 11.57 8.76 9.03 7.46 7.12 6.4 5.68 5.56 4.57 4.86 2.76 3.2-1.52 1.3-2.72-3.16-4.5-4.8-5.63-5.5-7.06-6.35-8.97-7.4-11.5-8.7-14.83-10.3-19.2-12.17-24.54-14.15-30.18-15.75-34.04-16.02-33.18-13.97-6.28-2.33v-2.13z" fill="#c92d39"/><path d="M281 399.02l-.02 1.04-.98-.06-1.02.04.02-1.06zM685.25 401.03l-12.05-8.94 7.56-5.4z" fill="#c92d39"/><path d="M687.12 403.66l-15.62-11.6 9.8-6.96zM674.9 392.1l8.47 6.3-3.15-10.07z" fill="#c92d39"/><use xlink:href="#h" transform="matrix(1,0,0,1,433.1786381286522,249.5403641946583) translate(0 14.4)"/><path d="M879 220c0 22.1-17.9 40-40 40s-40-17.9-40-40 17.9-40 40-40 40 17.9 40 40z" stroke="#000" stroke-width="2" fill="#fff"/><use xlink:href="#i" transform="matrix(1,0,0,1,819,180) translate(9 32.8)"/><use xlink:href="#j" transform="matrix(1,0,0,1,819,180) translate(0 54.4)"/><path d="M879 360c0 22.1-17.9 40-40 40s-40-17.9-40-40 17.9-40 40-40 40 17.9 40 40z" stroke="#000" stroke-width="2" fill="#fff"/><use xlink:href="#k" transform="matrix(1,0,0,1,819,320) translate(9 43.6)"/><path d="M879 540c0 22.1-17.9 40-40 40s-40-17.9-40-40 17.9-40 40-40 40 17.9 40 40z" stroke="#000" stroke-width="2" fill="#fff"/><use xlink:href="#l" transform="matrix(1,0,0,1,819,500) translate(9 43.6)"/><path d="M879 700c0 22.1-17.9 40-40 40s-40-17.9-40-40 17.9-40 40-40 40 17.9 40 40z" stroke="#000" stroke-width="2" fill="#fff"/><use xlink:href="#m" transform="matrix(1,0,0,1,819,660) translate(9 32.8)"/><use xlink:href="#n" transform="matrix(1,0,0,1,819,660) translate(-5 54.4)"/><path d="M725.6 339.52l-3.98 8.26-3.4 7.82-2.82 7.4-2.35 6.95-1.9 6.55-1.52 6.17-1.17 5.8-.87 5.46-.6 5.18-2-.22.6-5.22.9-5.55 1.18-5.87 1.53-6.24 1.94-6.65 2.37-7.04 2.88-7.46 3.42-7.9 4.03-8.33 2.75-5.1h2.27zm66.7-83.3l-3.92 3.3-8.44 7.77-8.38 8.38-8.18 8.9-7.8 9.22-7.3 9.4-6.17 8.7h-2.42l.26-.4 6.73-9.5 7.35-9.46 7.86-9.3 8.23-8.95 8.46-8.46 8.5-7.8 3.95-3.36z" fill="#c92d39"/><path d="M707 399.15l-.15.9-.85-.05-1.17.04.18-1.2zM795.1 258.63l-5.75-7.27 14.06-5.23z" fill="#c92d39"/><path d="M795.18 260.33l-7.47-9.43 18.24-6.78zm-4.2-8.5l4.05 5.1 5.84-8.8z" fill="#c92d39"/><use xlink:href="#f" transform="matrix(1,0,0,1,718.9367194910548,311.88553843239) translate(0 14.4)"/><path d="M666.2 633.15l2.2 4.75 2.34 4.57 8.8 17.63 3.52 9.13 6.7 12.45 5.8 7.97 3.92 4.1 2.72 2.13 13.23 7.9 10.52 4.84 8.04 2.72 6.23 1.4 5 .56 3.7.05 2.34-.2 3.34-.66 5.53-1.7 20.2-8.2.76 1.85-20.3 8.24-5.7 1.73-3.55.7-2.54.22-3.9-.05-5.2-.6-6.45-1.43-8.24-2.8-10.7-4.93-13.44-8-2.93-2.3-4.12-4.3-5.93-8.2-6.83-12.67-3.52-9.16-8.77-17.53-2.35-4.6-2.23-4.82-2-4.83-.15-.4h2.15zm40.48-151.4l-5.43 5-5.05 5.1-4.7 5.13-4.34 5.18-4 5.2-3.7 5.24-3.38 5.24-3.08 5.25-2.8 5.23-2.5 5.24-2.24 5.23-1.98 5.2-1.72 5.2-1.48 5.15-1.24 5.13-1.02 5.1-.78 5.08-.57 5.05-.35 5.02-.14 5 .07 4.94.28 4.93.48 4.88.7 4.88.5 2.75h-2.04l-.44-2.42-.7-4.96-.5-4.98-.27-5-.07-5.05.14-5.08.36-5.1.58-5.12.8-5.16 1.02-5.2 1.26-5.2 1.5-5.24 1.76-5.27 2-5.28 2.28-5.3 2.55-5.32 2.83-5.32 3.12-5.3 3.42-5.32 3.74-5.3 4.06-5.28 4.4-5.24 4.75-5.2 5.1-5.13 5.47-5.06z" fill="#c92d39"/><path d="M706.7 481.72l-1.4-1.44.32-.3.38.02 2.57-.1zM794.83 700.65l-13.05 7.4-1.86-9.1z" fill="#c92d39"/><path d="M798 700l-16.93 9.6-2.4-11.8zm-15.52 6.5l9.18-5.2-10.48-1.2z" fill="#c92d39"/><use xlink:href="#h" transform="matrix(1,0,0,1,639.6952901675713,607.1104901754537) translate(0 14.4)"/><path d="M839 261v39.76" stroke="#c92d39" stroke-width="2" fill="none"/><path d="M839 260l1-.04V261h-2v-1.06zM839 315.76l-4.64-14.26h9.28z" fill="#c92d39"/><path d="M839 319l-6-18.5h12zm-3.26-16.5l3.26 10.03 3.26-10.03zM840 659h-2v-59.76h2zM840 660.06l-1-.06-1 .04V659h2zM843.64 598.5h-9.28l4.64-14.26z" fill="#c92d39"/><path d="M845 599.5h-12l6-18.5zm-9.26-2h6.52L839 587.47zM883.6 540.5l3.53 1.38 3.94 1.35 4.4 1.3 4.93 1.26 5.53 1.15 6.23 1.03 7 .86 7.87.63 8.78.34 9.75-.03 10.67-.48 11.5-1.02 6.82-.88v2l-6.6.87-11.58 1-10.76.5-9.82.04-8.87-.33-7.94-.64-7.08-.87-6.3-1.05-5.63-1.16-5.02-1.27-4.47-1.33-4.02-1.38-3.6-1.42-3.24-1.42.8-1.83zm211.27-42.7l-.18.24-1.58 1.9-1.8 2-2.06 2.13-2.4 2.26-2.75 2.4-3.2 2.55-3.73 2.73-4.34 2.9-5.06 3.1-5.9 3.25-6.84 3.43-7.9 3.54-9 3.6-9.64 3.38v-2.12l8.93-3.14 8.93-3.57 7.8-3.5 6.78-3.4 5.82-3.2 5-3.05 4.27-2.85 3.66-2.68 3.13-2.5 2.7-2.35 2.32-2.2 2-2.07 1.75-1.94 1.5-1.84.18-.2z" fill="#c92d39"/><path d="M880.35 539.06l-.7 1.88-.7-.26.05-.68-.05-1.45zM1098.5 498.7l-8.35-4.05 10.4-10.8z" fill="#c92d39"/><path d="M1099.3 500.2l-10.82-5.25 13.48-14.02zm-7.47-5.84l5.86 2.84 1.44-10.45z" fill="#c92d39"/><use xlink:href="#g" transform="matrix(1,0,0,1,974.5388802572214,532.7861726098745) translate(0 14.4)"/><path d="M1033.36 352.58l9.5.7 7.35.84 5.93.94 4.9.98 4.12 1.02 3.55 1.03 3.08 1.03 2.72 1.04 2.4 1.04 2.17 1.06 1.95 1.04 1.76 1.05 1.62 1.05 1.48 1.05 1.36 1.06 1.27 1.08 1.18 1.08 1.1 1.1 1 1.1.96 1.12.9 1.16.83 1.18.8 1.2.72 1.25.68 1.3.65 1.32.18.42-1.83.8-.16-.4-.6-1.25-.65-1.22-.7-1.17-.73-1.14-.8-1.1-.83-1.1-.9-1.06-.97-1.05-1.04-1.03-1.12-1.02-1.2-1.02-1.3-1-1.4-1-1.55-1-1.7-1.02-1.87-1-2.08-1-2.34-1.02-2.63-1-3-1.02-3.47-1-4.05-1-4.8-.98-5.84-.92-7.27-.84-9.4-.68-13-.4L880.05 361l-.1-2 140.3-6.82z" fill="#c92d39"/><path d="M880.05 361l-1.12.05.07-1.05-.03-.95 1-.05zM1099.4 395.82l-7.25-13.14 9.1-1.74z" fill="#c92d39"/><path d="M1100 399l-9.4-17.04 11.82-2.26zm-6.3-15.6l5.08 9.24 1.32-10.46z" fill="#c92d39"/><use xlink:href="#g" transform="matrix(1,0,0,1,1015.7427842708727,328.4447851181702) translate(0 14.4)"/><path d="M747.16 538l1.1 3.74 1.4 4.05 1.75 4.5 2.28 5.18 3.1 6.3 4.7 8.63 30.5 51.74 4.27 8.72 3.35 7.62 2.72 7 2.26 6.6.73 2.46-1.9.57-.72-2.4-2.23-6.53-2.7-6.92-3.32-7.55-4.22-8.6-30.47-51.7-4.73-8.7-3.13-6.38-2.3-5.26-1.8-4.58-1.4-4.13-1.14-3.8-.3-1.2H747zm56.78-157.98l-3.66 7.18-27.66 49.6-2.77-.77-1.75.33-1.5 1.12-.36.52-.52 1.84.33 1.75 1.12 1.5 1.4.96-6.93 12.44-4.77 10.45-3.47 8.53-2.6 7.23-1.94 6.3-1.48 5.54-1.1 4.97-.8 4.5-.56 4.12-.35 3.8-.18 3.5v.34h-2v-.4l.17-3.6.36-3.86.57-4.2.8-4.58 1.13-5.05 1.5-5.63 2-6.37 2.6-7.3 3.5-8.62 4.82-10.55 6.1-10.93-.18-.12-1.6-2.14-.5-2.65.74-2.62.74-1.06 2.14-1.6 2.66-.5 1.7.5 26.88-48.2 3.64-7.16z" fill="#c92d39"/><path d="M804.2 379.56l-.27.48-1.76-.94.86-1.62zM807.84 669.4L800 656.6l9.03-2.15z" fill="#c92d39"/><path d="M808.6 672.55l-10.16-16.6 11.7-2.8zm-7.02-15.3l5.5 9 .84-10.5z" fill="#c92d39"/><use xlink:href="#h" transform="matrix(1,0,0,1,723.8944500513207,515.7606018572425) translate(0 14.4)"/><path d="M935.14 454.64l-4.33 8.07-4.38 7.45-4.43 6.82-4.44 6.23-4.4 5.7-4.38 5.16-4.33 4.7-4.28 4.3-4.22 3.87-4.17 3.53-4.12 3.2-4.07 2.88-4.04 2.62-3.98 2.35-1-1.7 3.92-2.34 3.96-2.57 4-2.86 4.06-3.14 4.1-3.47 4.17-3.83 4.2-4.22 4.28-4.64 4.32-5.1 4.35-5.63 4.38-6.16 4.4-6.74 4.34-7.37 4.3-8 1.4-2.93H937zm15.6-38.5l-3.52 10.48-1 2.58h-2.13l1.24-3.26 3.5-10.4.5-1.68h2.07zm-51.62-194.9l2.9.76 2.8.88 2.7.97 2.64 1.08 2.57 1.18 2.5 1.3 2.47 1.37 2.4 1.5 2.38 1.6 2.34 1.75 2.3 1.86 2.27 2 2.23 2.16 2.23 2.32 2.2 2.5 2.17 2.7 2.16 2.9 2.12 3.13 2.1 3.38 2.08 3.7 2.03 4 2 4.33 1.92 4.74 1.85 5.16 1.76 5.6 1.64 6.14 1.5 6.67 1.3 7.26 1.06 7.87.8 8.5.48 9.12.1 9.73-.33 10.28-.16 2.3-2.54.3-1.87 1.33-.85 2.17.2 1.52 1.3 1.85 3.14 1.23-1.3 11.1-1.78 11.28-1.9 9.5h-2.05l1.98-9.85 1.77-11.2 1.1-9.52-2.25-.9-1.95-2.74-.32-2.52 1.26-3.22 2.75-1.95 1.42-.18.04-.6.34-10.2-.1-9.65-.47-9.05-.8-8.4-1.06-7.8-1.27-7.17-1.47-6.6-1.62-6.03-1.73-5.54-1.82-5.07-1.9-4.65-1.95-4.26-2-3.93-2.03-3.6-2.06-3.32-2.08-3.07-2.1-2.83-2.13-2.63-2.15-2.43-2.16-2.25-2.2-2.1-2.2-1.94-2.23-1.8-2.28-1.7-2.3-1.55-2.34-1.45-2.4-1.35-2.42-1.24-2.5-1.13-2.56-1.05-2.63-.95-2.7-.85-2.82-.75-.78-.18.43-1.96z" fill="#c92d39"/><path d="M875.62 521.48l-.9.6-.97-1.76.78-.5zM896.88 226.55l-13.66-6.2 14.7-3z" fill="#c92d39"/><path d="M897.72 228.03L880 220l19.06-3.92zm-11.3-7.3l9.62 4.34.72-6.48z" fill="#c92d39"/><use xlink:href="#f" transform="matrix(1,0,0,1,938.4245784519671,392.25518080731365) translate(0 14.4)"/><path d="M585.02 316.33l-1.46-1.26-1.67-.64-1.72.12-1.6.9-.57.66-.63 1.68.12 1.7 1.38 2.46-85.2 77.8-1.35-1.48 84.02-76.73-.82-1.45-.18-2.6.92-2.4 1.02-1.2 2.3-1.3 2.6-.18 2.4.93.38.33 12.7-11.6h2.98zm194.82-94.86l-12.93.96-12 1.4-11.24 1.78-10.64 2.16-10.18 2.5-9.84 2.87-9.6 3.24-9.5 3.64-9.47 4.12-9.6 4.65-9.88 5.3-10.37 6.15-11.15 7.26-12.45 8.87-5.26 4.1h-3.26l7.33-5.7 12.5-8.92 11.23-7.3 10.43-6.2 9.96-5.34 9.67-4.7 9.55-4.14 9.57-3.68 9.68-3.26 9.92-2.9 10.26-2.52 10.73-2.16 11.33-1.8 12.1-1.4 12.97-.96z" fill="#c92d39"/><path d="M493.68 399.73l-.32.3-.36-.03-2.68.1 2-1.84zM794.76 220.08l-14.14 5-.24-9.26z" fill="#c92d39"/><path d="M798 220l-18.34 6.5-.3-12.03zm-16.4 3.7l9.93-3.53-10.1-3z" fill="#c92d39"/><use xlink:href="#h" transform="matrix(1,0,0,1,591.0030519577485,280.4453498437541) translate(0 14.4)"/><path d="M420 320c0 22.1-17.9 40-40 40s-40-17.9-40-40 17.9-40 40-40 40 17.9 40 40z" stroke="#000" stroke-width="2" fill="#fff"/><use xlink:href="#o" transform="matrix(1,0,0,1,360,280) translate(9 32.8)"/><use xlink:href="#p" transform="matrix(1,0,0,1,360,280) translate(2.5 54.4)"/><path d="M489.57 370.8l1.55 5.3 1.24 5.48.9 5.66.55 5.82.2 5.9-2 .07-.18-5.85-.55-5.7-.88-5.52-1.22-5.37-1.5-5.18-1.22-3.33h2.13zm-47.08-48.56l4.05 1.42 3.96 1.67 3.85 1.92 3.73 2.17 3.63 2.43 3.52 2.68 3.4 2.95 3.24 3.22 3.12 3.5 1.8 2.3h-2.55l-.8-1.02-3.02-3.4-3.15-3.13-3.3-2.87-3.4-2.6-3.53-2.36-3.62-2.1-3.73-1.87-3.84-1.62-3.94-1.38-3.13-.88.54-1.92z"/><path d="M494.1 400.07L493 400l-.92.03-.08-.95 2-.17zM437.77 326.82l-13.56-6.4 14.75-2.8z"/><path d="M438.6 328.3L421 320l19.12-3.6zm-11.18-7.48l9.54 4.5.82-6.46z"/><use xlink:href="#q" transform="matrix(1,0,0,1,463.1721456477869,346.48884634106906) translate(0 14.4)"/><path d="M339 320l-4.1.1-4.55.4-5 .67-5.45 1.05-5.93 1.5-6.34 1.94-6.65 2.45-6.8 2.95-3.16 1.57-.1-.2c-1.36-2.4-4.4-3.24-6.82-1.88-2.4 1.36-3.24 4.42-1.88 6.82l-1.33.75-6.1 3.9-5.5 4-4.9 3.92-4.22 3.8-3.63 3.65-3.06 3.42-2.58 3.2-2.15 3-1.78 2.8-1.48 2.62-1.2 2.45-.98 2.3-.8 2.16-.6 2.05-.5 1.95-.34 1.86-.24 1.78-.13 1.72-.04 1.66.04 1.62.14 1.58.22 1.55.23 1.18" stroke="#000" stroke-width="2" fill="none"/><path d="M340 320l.03.9-.94.1-.2-2 1.17-.1zM248.44 409.22l-10.94-10.27 8.13-4.46z"/><path d="M250 412.06l-14.18-13.32 10.53-5.8zm-10.8-12.9l7.68 7.22-1.98-10.36z"/><path d="M460 600c0 22.1-17.9 40-40 40s-40-17.9-40-40 17.9-40 40-40 40 17.9 40 40z" stroke="#000" stroke-width="2" fill="#fff"/><use xlink:href="#r" transform="matrix(1,0,0,1,400,560) translate(9 32.8)"/><use xlink:href="#n" transform="matrix(1,0,0,1,400,560) translate(-5 54.4)"/><path d="M574.9 552.33l-7.6 3.23-15.62 5.9-22.03 7.25-52.83 14.67-.54-1.93 52.8-14.64 21.94-7.23 15.55-5.86 8.32-3.54zm105.17-80.65l-9.78 11.46-9.18 9.88-8.73 8.66-8.48 7.7-8.34 6.98-8.33 6.4-8.46 5.95-4.96 3.18v-.7h-2.62l6.46-4.13 8.4-5.9 8.25-6.35 8.27-6.92 8.4-7.65 8.7-8.6 9.1-9.82 9.75-11.4zM680.73 470.9l-.66.78-1.52-1.3.63-.74zM477.08 587.07l-15-.66 12.52-8.27z"/><path d="M478.4 588.13l-19.42-.85 16.22-10.74zm-13.2-2.58l10.55.46-1.74-6.27z"/><use xlink:href="#q" transform="matrix(1,0,0,1,574.894808221636,531.194365831517) translate(0 14.4)"/><path d="M241.86 484.63l-.5 1.16-.6 1.46-.5 1.47-.45 1.47-.37 1.48-.32 1.5-.24 1.5-.2 1.54-.13 1.56-.06 1.6V501l.07 1.68.14 1.73.23 1.8.32 1.85.4 1.92.53 2 .63 2.1.76 2.2.92 2.3 1.08 2.45 1.28 2.57 1.5 2.7 1.75 2.9 2.03 3.06 2.37 3.25 2.74 3.47 3.17 3.66 3.64 3.87 4.17 4.07 4.72 4.25 5.3 4.4 5.9 4.46 6.46 4.5 6.96 4.4 7.35 4.25 7.6 3.98 7.7 3.63 7.65 3.22 7.45 2.77 7.16 2.33 6.78 1.9 6.37 1.5 5.92 1.12 5.47.8 5.06.54 4.67.3 4.32.1-.04 2-4.37-.1-4.74-.3-5.14-.54-5.57-.82-6-1.15-6.44-1.52-6.85-1.92-7.23-2.35-7.54-2.8-7.72-3.24-7.78-3.66-7.68-4.02-7.42-4.28-7.03-4.46-6.53-4.54-5.97-4.52-5.37-4.45-4.78-4.3-4.22-4.13-3.7-3.93-3.2-3.73-2.8-3.52-2.42-3.32-2.08-3.13-1.8-2.96-1.53-2.78-1.32-2.65-1.1-2.5-.96-2.4-.8-2.28-.65-2.18-.54-2.1-.42-2-.33-1.93-.24-1.88-.16-1.8-.07-1.77v-1.72l.07-1.68.13-1.64.2-1.6.28-1.6.33-1.58.4-1.56.47-1.55.54-1.54.6-1.54.54-1.2z"/><path d="M380.06 599.07l-.06.93.04 1.08-1.1-.08.13-2zM245.05 486.48l-7.46-5.5 12.2-8.73z"/><path d="M245.56 488.1l-9.67-7.14 15.8-11.32zm-6.27-7.12l5.24 3.87 3.33-10zM912.46 622.16l7.96 16.43 5.5 12.67 3.97 10.32 2.9 8.63 2.14 7.37 1.58 6.4 1.13 5.62.8 5 .5 4.46.3 4.03.12 3.7-.03 3.36-.16 3.1-.28 2.9-.36 2.68-.46 2.5-.53 2.38-.6 2.24-.66 2.13-.74 2-.8 1.94-.84 1.86-.9 1.8-.98 1.7-1.04 1.68-1.1 1.63-1.18 1.58-1.24 1.54-1.33 1.5-1.42 1.5-1.5 1.44-1.63 1.43-1.74 1.4-1.87 1.38-2.03 1.37-2.18 1.36-2.4 1.34-2.6 1.32-2.83 1.3-3.14 1.28-3.48 1.25-3.88 1.2-4.36 1.17-4.92 1.1-5.63 1-6.47.9-7.54.7-8.86.46-10.56.1-12.77-.4-12.92-.93-55.1-4.75-14.7-2.53-12.4-2.87-7-1.97-6.17-1.5-8.27-1.1-30-2-3.95-.9-7.3-2.56-27.26-13.43-1.83-.4-.8-.07-4.45-.43-6.33-1.14-9.24-2.43-13.36-4.7-16.1-7.08-11.23-6-2.36-1.43-2.1-1.2-3.5-1.65-7.25-2.65-44.13-13.24-2.27-1-23.47-11.75-10.7-6.3-6.7-4.57-4.98-3.9-4.33-3.9-4.68-4.82-9.67-11.07 1.5-1.3 9.63 11.02 4.6 4.7 4.23 3.82 4.87 3.83 6.57 4.48 10.6 6.24 23.36 11.7 2.1.93 44.08 13.22 7.38 2.7 3.67 1.7 2.2 1.28 2.33 1.43 11.12 5.92 15.96 7.03 13.2 4.63 9.08 2.4 6.17 1.1 4.36.44.9.1 2.18.44 27.4 13.5 7.07 2.48 3.68.84 29.9 2 8.45 1.1 6.3 1.55 7 1.96 12.28 2.85 14.57 2.52 55 4.74 12.9.92 12.67.4 10.48-.1 8.78-.44 7.45-.7 6.4-.87 5.54-1 4.84-1.07 4.27-1.14 3.8-1.2 3.42-1.22 3.06-1.25 2.76-1.27 2.52-1.28 2.3-1.3 2.12-1.3 1.95-1.33 1.8-1.34 1.68-1.34 1.56-1.37 1.46-1.4 1.35-1.42 1.28-1.45 1.2-1.47 1.12-1.5 1.05-1.57 1-1.6.93-1.66.87-1.7.8-1.8.77-1.85.7-1.95.63-2.05.58-2.16.52-2.28.44-2.44.36-2.6.26-2.8.16-3.02.03-3.3-.1-3.58-.3-3.96-.5-4.38-.8-4.9-1.1-5.54-1.56-6.32-2.1-7.3-2.9-8.55-3.93-10.24-5.47-12.6-7.9-16.34-36.04-64.1 1.74-.97z"/><path d="M876.4 558.03l-1.74.98-.26-.44 1.05-2.23zM463.6 639.42l-7 6.1-5.87-13.8z"/><path d="M465.3 639.27l-9.07 7.9-7.63-17.9zm-8.3 4.58l4.9-4.28-9.04-5.42z"/><use xlink:href="#q" transform="matrix(1,0,0,1,875.9821396144644,767.2827781537712) translate(0 14.4)"/><path d="M590.25 594.02l-11.47 1.44-38.8 3.23-48.92 2-11.8.1-.03-2 11.78-.1 48.86-2 38.7-3.23 11.7-1.47zm249.75-193l-.18 8.6-.5 8.1-.8 7.67-1.08 7.26-.65 3.38-3.13.22-1.67 1.13-.87 1.68.07 2.1 1.05 1.7 2.73 1.47-.4 1.85-1.8 6.36-1.98 6.12-2.2 5.93-2.42 5.75-2.63 5.6-2.85 5.44-3.08 5.33-3.33 5.24-3.6 5.16-3.86 5.1-4.17 5.03-4.5 5-4.87 4.97-5.28 4.95-5.73 4.95-6.26 4.95-6.83 4.96-7.48 4.98-8.08 4.88-1.96-2.13-1.66-.64-1.87.17-.54.24-1.42 1.3-.65 1.65.16 1.86.66 1.55-2.05 1.14-10.17 5.05-11.4 5.06-12.83 5.08-14.57 5.06-16.67 5.03-19.04 4.88-1.47-2.8-1.7-1.07-2-.1-1.88.97-1.1 1.72-.15 3.05L637 587l-7.8 1.32v-2.02l7.42-1.26 12.78-2.7.1-2.05 1.67-2.63 2.83-1.46 3.06.16 2.6 1.64 1 1.88 17.46-4.48 16.6-5 14.48-5.04 12.76-5.05 11.32-5.02 10.1-5 .42-.24-.08-.18-.22-2.67 1-2.54 2-1.82 1.15-.5 2.65-.24 2.53.97 1.18 1.28 6.65-4.02 7.42-4.93 6.76-4.9 6.2-4.9 5.66-4.9 5.2-4.9 4.8-4.9 4.46-4.95 4.1-4.97 3.83-5.03 3.53-5.1 3.28-5.16 3.05-5.27 2.8-5.38 2.6-5.5 2.4-5.68 2.16-5.84 1.97-6.05 1.76-6.27.07-.32-1.87-1-1.6-2.6-.1-3.15 1.32-2.6 2.55-1.73 2.12-.15.34-1.83 1.06-7.18.8-7.58.5-8.02.18-8.55z"/><path d="M839 400l1.04-.04-.04 1.08-2-.07.04-1.03zM478.55 604.46l-14.3-4.5 14.2-4.77z"/><path d="M479.56 605.82L461 600l18.44-6.2zm-12.1-5.9l10.07 3.17-.06-6.53z"/><use xlink:href="#q" transform="matrix(1,0,0,1,590.2488018611762,579.7633442401336) translate(0 14.4)"/><path d="M1143.8 439.06l2.48.15 2.23.25 2.03.3 1.84.34 1.68.4 1.55.42 1.42.46 1.33.5 1.23.5 1.16.56 1.08.56 1.02.6.97.6.92.64.87.66.8.68.8.7.75.74.72.77.7.8.65.82.63.87.6.9.58.96.56 1 .52 1.08.5 1.13.48 1.2.45 1.3.4 1.37.4 1.48.33 1.6.3 1.74.24 1.9.17 2.08.1 2.3-.02 2.55-.12 2.83-.27 3.2-.47 3.63-.7 4.15-1.02 4.77-1.4 5.53-1.97 6.47-2.65 7.6-3.58 9.03-4.78 10.7-6.3 12.7-8.22 14.9-10.35 17.08-12.5 18.8-14.22 19.57-15.03 18.96-14.75 17.1-13.6 14.52-12 11.76-.47.44-69.8 65.73-13.4 11.06-11.08 8.4-9.86 6.84-9.15 5.8-8.74 5-8.48 4.42-8.36 3.92-8.37 3.5-8.45 3.13-8.63 2.8-8.9 2.46-9.24 2.15-9.7 1.84-10.27 1.5-10.97 1.13-11.84.72-12.9.23-14.2-.33-15.82-1.03-17.88-1.92-12.65-1.8-34.66-6.1-34.03-7.5-35.3-9.37-43.5-13.54-84.98-28.47-13.47-3.58-10.1-2.25-3.34-.63-43.02-8.6-22.65-5.58-17.08-5-14.8-5-14.05-5.42-14.37-6.25-15.9-7.74-19.47-10.5-9.32-5.38-19.16-11.8-15.72-10.6-13.04-9.6-10.92-8.8-9.22-8.06-7.85-7.48-6.7-6.95-5.78-6.5-5-6.13-4.3-5.78-3.78-5.5-3.27-5.24-2.86-5.03-2.48-4.85-2.16-4.67-1.86-4.54-1.6-4.4-1.38-4.33-1.14-4.22-.95-4.17-.75-4.1-.57-4.08-.4-4.05-.22-4.05-.06-4.05.12-4.07.28-4.1.47-4.15.65-4.2.85-4.3 1.07-4.38 1.3-4.5 1.53-4.63 1.82-4.78 2.14-4.97 2.5-5.2 2.88-5.4 3.35-5.7 3.9-6.03 2.2-3.13 1.63 1.16-2.18 3.1-3.85 5.94-3.3 5.63-2.85 5.34-2.45 5.12-2.1 4.9-1.8 4.7-1.5 4.55-1.28 4.4-1.04 4.3-.83 4.22-.64 4.12-.46 4.06-.28 4.02-.13 3.98.06 3.97.22 3.96.38 3.98.56 4 .73 4.03.93 4.1 1.12 4.15 1.34 4.23 1.58 4.34 1.84 4.46 2.12 4.6 2.44 4.76 2.82 4.95 3.23 5.17 3.7 5.42 4.3 5.7 4.92 6.07 5.72 6.44 6.64 6.9 7.78 7.4 9.16 8.03 10.86 8.73 12.97 9.56 15.67 10.56 19.1 11.75 9.27 5.35 19.4 10.47 15.83 7.7 14.3 6.22 13.96 5.4 14.72 4.98 17 4.96 22.57 5.56 42.97 8.6 3.35.63 10.17 2.24 13.57 3.6 85.02 28.5 43.43 13.52 35.23 9.34 33.95 7.48 34.6 6.1 12.58 1.8 17.8 1.9 15.76 1.03 14.1.33 12.82-.24 11.75-.73 10.88-1.12 10.2-1.48 9.62-1.82 9.16-2.13 8.82-2.44 8.54-2.76 8.38-3.1 8.3-3.47 8.28-3.88 8.4-4.38 8.65-5 9.08-5.73 9.8-6.8 11-8.32 13.32-11 69.76-65.7.46-.4 11.95-11.73 13.56-14.44 14.7-17.04 14.97-18.9 14.17-19.5 12.46-18.73 10.3-17 8.17-14.82 6.28-12.62 4.76-10.64 3.54-8.94 2.63-7.53 1.93-6.4 1.4-5.44 1-4.67.7-4.06.44-3.54.27-3.12.1-2.76.02-2.46-.1-2.2-.17-2-.23-1.83-.28-1.65-.32-1.52-.36-1.4-.4-1.3-.4-1.2-.46-1.13-.47-1.06-.48-1-.52-.94-.54-.9-.55-.83-.58-.8-.6-.77-.64-.73-.66-.7-.7-.68-.72-.66-.76-.64-.8-.6-.84-.6-.9-.56-.94-.54-1-.53-1.1-.5-1.15-.5-1.23-.46-1.35-.44-1.47-.4-1.6-.38-1.75-.33-1.94-.3-2.15-.2-2.4-.16-2.72-.06.04-2z"/><path d="M1141.14 439l-.27 2-.92-.14.05-.86-.04-1.15zM231.96 456.68l-7.34-5.67 12.4-8.44z"/><path d="M232.43 458.3l-9.5-7.34L239 440zm-6.1-7.24l5.15 4 3.56-9.94zM896.38 301.74l-.8 3.4-.95 3.3-1.1 3.2-1.28 3.1-1.4 2.97-1.5 2.85-1.65 2.7-1.74 2.55-1.83 2.4-1.92 2.27-2 2.12-2.08 1.98-2.16 1.85-2.2 1.7-1.23-1.58 2.17-1.67 2.08-1.8 2-1.9 1.94-2.05 1.85-2.18 1.77-2.32 1.68-2.47 1.58-2.6 1.47-2.74 1.35-2.88 1.23-3 1.08-3.1.92-3.22.77-3.28.15-.87h2.03zm-8.02-45.7l1.44 2.27 1.35 2.42 1.25 2.54 1.14 2.67 1.03 2.8.9 2.93.76 3.04.62 3.16.14 1h-2.03l-.1-.66-.6-3.06-.73-2.95-.87-2.83-1-2.7-1.1-2.57-1.2-2.45-1.3-2.32-1.37-2.2-1.13-1.6 1.63-1.14z"/><path d="M873.83 338.06l-.87.85-.28-.48-.87-1.2.64-.6zM889.1 251.15l-6.33 6.78-7.27-13.12z"/><path d="M890.76 250.83l-8.2 8.8-9.43-17.03zm-7.8 5.4l4.46-4.75-9.55-4.47z"/><use xlink:href="#f" transform="matrix(1,0,0,1,881.6955503414638,278.8693951526626) translate(0 14.4)"/><path d="M886.68 643.15l-1.14 3.1-1.3 3.05-1.44 3-1.6 2.94-1.2 1.94-1.7-1.05 1.16-1.9 1.56-2.85 1.4-2.9 1.26-2.96 1.1-3 .22-.72h2.1zm-15.48-71.43l2.64 3.25 2.43 3.3 2.23 3.37 2.03 3.42 1.83 3.46 1.63 3.5 1.43 3.5 1.24 3.54 1.05 3.53.87 3.52.67 3.53.5 3.5.32 3.5.14 3.45v.1h-2v-.07l-.15-3.35-.32-3.4-.5-3.4-.65-3.43-.84-3.44-1.03-3.43-1.2-3.43-1.4-3.43-1.6-3.4-1.78-3.36-2-3.34-2.17-3.28-2.37-3.23-2.58-3.17-2.8-3.1 1.5-1.35z"/><path d="M868.42 568.63l-1.58 1.24-.56-.72 1.46-1.38zM882.3 660.12l-12.62 8.1 5.46-13.98z"/><path d="M884 660.22l-16.37 10.5 7.08-18.12zm-12.27 5.5l8.88-5.7-5.03-4.13z"/><g><use xlink:href="#h" transform="matrix(1,0,0,1,868.5426149926756,620.1988308422674) translate(0 14.4)"/></g><defs><path d="M185-189c-5-48-123-54-124 2 14 75 158 14 163 119 3 78-121 87-175 55-17-10-28-26-33-46l33-7c5 56 141 63 141-1 0-78-155-14-162-118-5-82 145-84 179-34 5 7 8 16 11 25" id="s"/><path d="M27 0v-27h64v-190l-56 39v-29l58-41h29v221h61V0H27" id="t"/><g id="a"><use transform="matrix(0.05,0,0,0.05,0,0)" xlink:href="#s"/><use transform="matrix(0.05,0,0,0.05,12,0)" xlink:href="#t"/></g><path d="M101-251c82-7 93 87 43 132L82-64C71-53 59-42 53-27h129V0H18c2-99 128-94 128-182 0-28-16-43-45-43s-46 15-49 41l-32-3c6-41 34-60 81-64" id="u"/><g id="b"><use transform="matrix(0.05,0,0,0.05,0,0)" xlink:href="#s"/><use transform="matrix(0.05,0,0,0.05,12,0)" xlink:href="#u"/></g><path d="M30-248c118-7 216 8 213 122C240-48 200 0 122 0H30v-248zM63-27c89 8 146-16 146-99s-60-101-146-95v194" id="v"/><path d="M114-163C36-179 61-72 57 0H25l-1-190h30c1 12-1 29 2 39 6-27 23-49 58-41v29" id="w"/><path d="M100-194c62-1 85 37 85 99 1 63-27 99-86 99S16-35 15-95c0-66 28-99 85-99zM99-20c44 1 53-31 53-75 0-43-8-75-51-75s-53 32-53 75 10 74 51 75" id="x"/><path d="M115-194c55 1 70 41 70 98S169 2 115 4C84 4 66-9 55-30l1 105H24l-1-265h31l2 30c10-21 28-34 59-34zm-8 174c40 0 45-34 45-75s-6-73-45-74c-42 0-51 32-51 76 0 43 10 73 51 73" id="y"/><g id="c"><use transform="matrix(0.05,0,0,0.05,0,0)" xlink:href="#s"/><use transform="matrix(0.05,0,0,0.05,12,0)" xlink:href="#v"/><use transform="matrix(0.05,0,0,0.05,24.950000000000003,0)" xlink:href="#w"/><use transform="matrix(0.05,0,0,0.05,30.900000000000002,0)" xlink:href="#x"/><use transform="matrix(0.05,0,0,0.05,40.900000000000006,0)" xlink:href="#y"/></g><path d="M26 75v-336h71v23H56V52h41v23H26" id="z"/><path d="M85-194c31 0 48 13 60 33l-1-100h32l1 261h-30c-2-10 0-23-3-31C134-8 116 4 85 4 32 4 16-35 15-94c0-66 23-100 70-100zm9 24c-40 0-46 34-46 75 0 40 6 74 45 74 42 0 51-32 51-76 0-42-9-74-50-73" id="A"/><path d="M3 75V52h41v-290H3v-23h71V75H3" id="B"/><g id="d"><use transform="matrix(0.05,0,0,0.05,0,0)" xlink:href="#z"/><use transform="matrix(0.05,0,0,0.05,5,0)" xlink:href="#A"/><use transform="matrix(0.05,0,0,0.05,15,0)" xlink:href="#w"/><use transform="matrix(0.05,0,0,0.05,20.95,0)" xlink:href="#x"/><use transform="matrix(0.05,0,0,0.05,30.950000000000003,0)" xlink:href="#y"/><use transform="matrix(0.05,0,0,0.05,40.95,0)" xlink:href="#B"/></g><path d="M101-251c68 0 85 55 85 127S166 4 100 4C33 4 14-52 14-124c0-73 17-127 87-127zm-1 229c47 0 54-49 54-102s-4-102-53-102c-51 0-55 48-55 102 0 53 5 102 54 102" id="C"/><g id="e"><use transform="matrix(0.05,0,0,0.05,0,0)" xlink:href="#s"/><use transform="matrix(0.05,0,0,0.05,12,0)" xlink:href="#C"/></g><path d="M54-142c48-35 137-8 131 61C196 18 31 33 14-55l32-4c7 23 22 37 52 37 35-1 51-22 54-58 4-55-73-65-99-34H22l8-134h141v27H59" id="D"/><g id="f"><use transform="matrix(0.05,0,0,0.05,0,0)" xlink:href="#D"/><use transform="matrix(0.05,0,0,0.05,10,0)" xlink:href="#C"/><use transform="matrix(0.05,0,0,0.05,20,0)" xlink:href="#C"/></g><path d="M135-143c-3-34-86-38-87 0 15 53 115 12 119 90S17 21 10-45l28-5c4 36 97 45 98 0-10-56-113-15-118-90-4-57 82-63 122-42 12 7 21 19 24 35" id="E"/><path d="M100-194c63 0 86 42 84 106H49c0 40 14 67 53 68 26 1 43-12 49-29l28 8c-11 28-37 45-77 45C44 4 14-33 15-96c1-61 26-98 85-98zm52 81c6-60-76-77-97-28-3 7-6 17-6 28h103" id="F"/><g id="g"><use transform="matrix(0.05,0,0,0.05,0,0)" xlink:href="#y"/><use transform="matrix(0.05,0,0,0.05,10,0)" xlink:href="#w"/><use transform="matrix(0.05,0,0,0.05,15.949999999999998,0)" xlink:href="#x"/><use transform="matrix(0.05,0,0,0.05,25.950000000000003,0)" xlink:href="#E"/><use transform="matrix(0.05,0,0,0.05,34.95,0)" xlink:href="#F"/><use transform="matrix(0.05,0,0,0.05,44.95,0)" xlink:href="#E"/></g><g id="h"><use transform="matrix(0.05,0,0,0.05,0,0)" xlink:href="#t"/><use transform="matrix(0.05,0,0,0.05,10,0)" xlink:href="#C"/><use transform="matrix(0.05,0,0,0.05,20,0)" xlink:href="#C"/><use transform="matrix(0.05,0,0,0.05,30,0)" xlink:href="#C"/></g><path d="M126-127c33 6 58 20 58 59 0 88-139 92-164 29-3-8-5-16-6-25l32-3c6 27 21 44 54 44 32 0 52-15 52-46 0-38-36-46-79-43v-28c39 1 72-4 72-42 0-27-17-43-46-43-28 0-47 15-49 41l-32-3c6-42 35-63 81-64 48-1 79 21 79 65 0 36-21 52-52 59" id="G"/><g id="i"><use transform="matrix(0.05,0,0,0.05,0,0)" xlink:href="#s"/><use transform="matrix(0.05,0,0,0.05,12,0)" xlink:href="#G"/></g><g id="j"><use transform="matrix(0.05,0,0,0.05,0,0)" xlink:href="#z"/><use transform="matrix(0.05,0,0,0.05,5,0)" xlink:href="#D"/><use transform="matrix(0.05,0,0,0.05,15,0)" xlink:href="#C"/><use transform="matrix(0.05,0,0,0.05,25,0)" xlink:href="#C"/><use transform="matrix(0.05,0,0,0.05,35,0)" xlink:href="#B"/></g><path d="M155-56V0h-30v-56H8v-25l114-167h33v167h35v25h-35zm-30-156c-27 46-58 90-88 131h88v-131" id="H"/><g id="k"><use transform="matrix(0.05,0,0,0.05,0,0)" xlink:href="#s"/><use transform="matrix(0.05,0,0,0.05,12,0)" xlink:href="#H"/></g><g id="l"><use transform="matrix(0.05,0,0,0.05,0,0)" xlink:href="#s"/><use transform="matrix(0.05,0,0,0.05,12,0)" xlink:href="#D"/></g><path d="M110-160c48 1 74 30 74 79 0 53-28 85-80 85-65 0-83-55-86-122-5-90 50-162 133-122 14 7 22 21 27 39l-31 6c-5-40-67-38-82-6-9 19-15 44-15 74 11-20 30-34 60-33zm-7 138c34 0 49-23 49-58s-16-56-50-56c-29 0-50 16-49 49 1 36 15 65 50 65" id="I"/><g id="m"><use transform="matrix(0.05,0,0,0.05,0,0)" xlink:href="#s"/><use transform="matrix(0.05,0,0,0.05,12,0)" xlink:href="#I"/></g><g id="n"><use transform="matrix(0.05,0,0,0.05,0,0)" xlink:href="#z"/><use transform="matrix(0.05,0,0,0.05,5,0)" xlink:href="#t"/><use transform="matrix(0.05,0,0,0.05,15,0)" xlink:href="#C"/><use transform="matrix(0.05,0,0,0.05,25,0)" xlink:href="#C"/><use transform="matrix(0.05,0,0,0.05,35,0)" xlink:href="#C"/><use transform="matrix(0.05,0,0,0.05,45,0)" xlink:href="#B"/></g><path d="M64 0c3-98 48-159 88-221H18v-27h164v26C143-157 98-101 97 0H64" id="J"/><g id="o"><use transform="matrix(0.05,0,0,0.05,0,0)" xlink:href="#s"/><use transform="matrix(0.05,0,0,0.05,12,0)" xlink:href="#J"/></g><g id="p"><use transform="matrix(0.05,0,0,0.05,0,0)" xlink:href="#z"/><use transform="matrix(0.05,0,0,0.05,5,0)" xlink:href="#D"/><use transform="matrix(0.05,0,0,0.05,15,0)" xlink:href="#C"/><use transform="matrix(0.05,0,0,0.05,25,0)" xlink:href="#C"/></g><path d="M115-194c53 0 69 39 70 98 0 66-23 100-70 100C84 3 66-7 56-30L54 0H23l1-261h32v101c10-23 28-34 59-34zm-8 174c40 0 45-34 45-75 0-40-5-75-45-74-42 0-51 32-51 76 0 43 10 73 51 73" id="K"/><path d="M141-36C126-15 110 5 73 4 37 3 15-17 15-53c-1-64 63-63 125-63 3-35-9-54-41-54-24 1-41 7-42 31l-33-3c5-37 33-52 76-52 45 0 72 20 72 64v82c-1 20 7 32 28 27v20c-31 9-61-2-59-35zM48-53c0 20 12 33 32 33 41-3 63-29 60-74-43 2-92-5-92 41" id="L"/><path d="M59-47c-2 24 18 29 38 22v24C64 9 27 4 27-40v-127H5v-23h24l9-43h21v43h35v23H59v120" id="M"/><path d="M24 0v-261h32V0H24" id="N"/><g id="q"><use transform="matrix(0.05,0,0,0.05,0,0)" xlink:href="#K"/><use transform="matrix(0.05,0,0,0.05,10,0)" xlink:href="#L"/><use transform="matrix(0.05,0,0,0.05,20,0)" xlink:href="#M"/><use transform="matrix(0.05,0,0,0.05,25,0)" xlink:href="#L"/><use transform="matrix(0.05,0,0,0.05,35,0)" xlink:href="#N"/></g><path d="M134-131c28 9 52 24 51 62-1 50-34 73-85 73S17-19 16-69c0-36 21-54 49-61-75-25-45-126 34-121 46 3 78 18 79 63 0 33-17 51-44 57zm-34-11c31 1 46-15 46-44 0-28-17-43-47-42-29 0-46 13-45 42 1 28 16 44 46 44zm1 122c35 0 51-18 51-52 0-30-18-46-53-46-33 0-51 17-51 47 0 34 19 51 53 51" id="O"/><g id="r"><use transform="matrix(0.05,0,0,0.05,0,0)" xlink:href="#s"/><use transform="matrix(0.05,0,0,0.05,12,0)" xlink:href="#O"/></g></defs></g></svg>